HIERARCHY
ROOT Hips
{
	OFFSET 0.000000 8.830580 0.000000
	CHANNELS 6 Xposition Yposition Zposition Zrotation Yrotation Xrotation 
	JOINT Spine
	{
		OFFSET 0.000000 0.010000 0.000000
		CHANNELS 3 Zrotation Yrotation Xrotation
		JOINT Spine1
		{
			OFFSET 0.000000 2.459130 0.000000
			CHANNELS 3 Zrotation Yrotation Xrotation
			JOINT Neck
			{
				OFFSET 0.000000 2.484630 0.000000
				CHANNELS 3 Zrotation Yrotation Xrotation
				JOINT Head_virtual
				{
					OFFSET 0.000000 0.000000 0.000000
					CHANNELS 3 Zrotation Yrotation Xrotation
					JOINT Head
					{
						OFFSET 0.000000 0.927525 0.000000
						CHANNELS 3 Zrotation Yrotation Xrotation
						End Site
						{
							OFFSET 0.000000 0.000000 0.000000
						}
					}
				}
				JOINT LeftUpArm_virtual
				{
					OFFSET 0.000000 0.000000 0.000000
					CHANNELS 3 Zrotation Yrotation Xrotation
					JOINT LeftUpArm
					{
						OFFSET 1.248820 0.000000 0.000000
						CHANNELS 3 Zrotation Yrotation Xrotation
						JOINT LeftForeArm
						{
							OFFSET 2.597580 0.000000 0.000000
							CHANNELS 3 Zrotation Yrotation Xrotation
							JOINT LeftHand
							{
								OFFSET 2.455420 0.000000 0.000000
								CHANNELS 3 Zrotation Yrotation Xrotation
								End Site
								{
									OFFSET 0.000000 0.000000 0.000000
								}
							}
						}
					}
				}
				JOINT RightUpArm_virtual
				{
					OFFSET -0.000000 -0.000000 -0.000000
					CHANNELS 3 Zrotation Yrotation Xrotation
					JOINT RightUpArm
					{
						OFFSET -1.248820 -0.000000 -0.000000
						CHANNELS 3 Zrotation Yrotation Xrotation
						JOINT RightForeArm
						{
							OFFSET -2.597580 -0.000000 -0.000000
							CHANNELS 3 Zrotation Yrotation Xrotation
							JOINT RightHand
							{
								OFFSET -2.455420 -0.000000 -0.000000
								CHANNELS 3 Zrotation Yrotation Xrotation
								End Site
								{
									OFFSET 0.000000 0.000000 0.000000
								}
							}
						}
					}
				}
			}
		}
	}
	JOINT LeftUpLeg
	{
		OFFSET 1.271939 0.000000 0.000000
		CHANNELS 3 Zrotation Yrotation Xrotation
		JOINT LeftLowLeg
		{
			OFFSET 0.000000 -4.342910 0.000000
			CHANNELS 3 Zrotation Yrotation Xrotation
			JOINT LeftFoot
			{
				OFFSET 0.000000 -4.487670 0.000000
				CHANNELS 3 Zrotation Yrotation Xrotation
				JOINT LeftToeBase
				{
					OFFSET 0.000000 0.000000 1.515070
					CHANNELS 3 Zrotation Yrotation Xrotation
					End Site
					{
						OFFSET 0.000000 0.000000 0.000000
					}
				}
			}
		}
	}
	JOINT RightUpLeg
	{
		OFFSET -1.271939 0.000000 0.000000
		CHANNELS 3 Zrotation Yrotation Xrotation
		JOINT RightLowLeg
		{
			OFFSET 0.000000 -4.342910 0.000000
			CHANNELS 3 Zrotation Yrotation Xrotation
			JOINT RightFoot
			{
				OFFSET 0.000000 -4.487670 0.000000
				CHANNELS 3 Zrotation Yrotation Xrotation
				JOINT RightToeBase
				{
					OFFSET 0.000000 0.000000 1.515070
					CHANNELS 3 Zrotation Yrotation Xrotation
					End Site
					{
						OFFSET 0.000000 0.000000 0.000000
					}
				}
			}
		}
	}
}
MOTION
Frames: 8
Frame Time: 0.041667
-12.854433 8.880320 25.677543 178.600062 -37.077467 -178.723309 4.663215 -1.677460 -19.871675 -7.060977 5.600193 23.037140 0.000000 0.000000 0.000000 19.991737 -6.563602 18.291685 3.583113 -11.078682 -84.887089 -26.234400 2.423740 8.032990 -46.564701 -9.716200 14.531400 0.000000 -18.664801 0.000000 6.446190 17.846201 -20.562901 31.029499 -3.849770 3.476013 47.185501 3.332430 7.640015 0.000000 27.307501 0.000000 1.992120 -9.590690 -18.466000 -3.543976 -11.732774 -3.645456 0.000000 0.000000 18.311899 -20.914759 5.614990 -7.306547 0.000000 0.000000 -17.618370 1.887461 15.979422 -4.202799 0.000000 0.000000 22.840000 31.670615 -8.144148 -15.391611 0.000000 0.000000 -17.274250 
-12.861058 8.879776 25.666655 178.572759 -37.734515 -178.486750 4.566556 -1.781713 -20.087931 -6.943929 5.639386 22.943234 0.000000 0.000000 0.000000 19.974043 -6.364292 18.014486 3.824706 -10.897953 -84.982812 -26.322901 2.552260 8.130005 -46.394299 -9.734860 14.610400 0.000000 -19.274200 0.000000 6.181690 17.614500 -22.261000 30.982201 -3.859230 3.208008 47.242401 3.121770 7.908997 0.000000 27.014299 0.000000 2.083140 -9.643410 -18.090500 -3.524183 -13.012345 -3.650676 0.000000 0.000000 17.946199 -21.079058 6.041683 -7.425073 0.000000 0.000000 -17.550850 1.909545 15.588616 -4.181917 0.000000 0.000000 22.706499 31.741723 -8.331059 -15.612182 0.000000 0.000000 -17.221020 
-12.868224 8.879484 25.657756 178.526938 -38.294044 -178.444110 4.538953 -1.743827 -20.080800 -6.998683 5.658215 22.870200 0.000000 0.000000 0.000000 20.067451 -6.322381 17.606523 3.966753 -10.666227 -85.067282 -26.283501 2.617880 8.071991 -46.338200 -9.634110 14.641500 0.000000 -19.846600 0.000000 5.763700 17.139500 -23.240101 31.099600 -3.878720 3.190002 47.200199 3.067700 7.975006 0.000000 26.850800 0.000000 2.035650 -9.703660 -17.883101 -3.522687 -13.265262 -3.693932 0.000000 0.000000 18.032400 -21.256447 5.668469 -7.349034 0.000000 0.000000 -17.552990 1.946953 15.259393 -4.016205 0.000000 0.000000 22.663900 31.802885 -8.464060 -15.798594 0.000000 0.000000 -17.218010 
-12.875158 8.878537 25.649755 178.491824 -38.727208 -178.382921 4.533015 -1.678409 -20.079386 -7.047129 5.677486 22.761876 0.000000 0.000000 0.000000 20.111062 -6.256666 17.229895 4.117130 -10.483472 -85.100404 -26.287201 2.708010 7.979004 -46.178699 -9.434840 15.208100 0.000000 -20.566700 0.000000 5.582420 16.774300 -23.627800 31.153299 -3.857410 3.175995 47.202499 3.006120 8.023987 0.000000 26.675699 0.000000 2.048150 -9.738850 -17.896500 -3.536839 -13.679598 -3.733779 0.000000 0.000000 18.090300 -21.179750 5.682887 -7.352535 0.000000 0.000000 -17.580270 1.975395 15.058761 -3.922023 0.000000 0.000000 22.670099 31.825030 -8.613830 -15.975637 0.000000 0.000000 -17.227010 
-12.880868 8.877526 25.639886 178.453688 -39.134925 -178.337043 4.472645 -1.705551 -20.097888 -6.998625 5.712018 22.699651 0.000000 0.000000 0.000000 20.142178 -6.276322 16.852580 4.209327 -10.368859 -85.201083 -26.293800 2.776970 7.862000 -46.097099 -9.266310 15.687700 0.000000 -21.146700 0.000000 5.514880 16.478901 -23.486500 31.159401 -3.829280 3.260010 47.235001 3.087290 7.976013 0.000000 26.433300 0.000000 2.110480 -9.802560 -17.668301 -3.549659 -14.081453 -3.752514 0.000000 0.000000 18.158001 -21.212596 5.664267 -7.387771 0.000000 0.000000 -17.570780 2.028490 14.919538 -3.803564 0.000000 0.000000 22.666000 31.847647 -8.823252 -16.175674 0.000000 0.000000 -17.209980 
-12.887197 8.876453 25.628598 178.392229 -39.453988 -178.300598 4.426907 -1.627493 -20.110563 -7.027422 5.785941 22.614438 0.000000 0.000000 0.000000 20.246963 -6.327341 16.561373 4.285239 -10.224885 -85.203663 -26.214701 2.740720 7.833008 -45.965099 -9.075800 16.755100 0.000000 -21.706400 0.000000 5.810010 16.302099 -23.129700 31.190201 -3.848930 3.316986 47.343899 3.091800 7.847992 0.000000 26.256701 0.000000 2.043180 -9.804800 -17.657900 -3.580992 -14.343406 -3.736738 0.000000 0.000000 18.241301 -21.165010 5.616421 -7.398717 0.000000 0.000000 -17.582460 2.060315 14.812912 -3.688268 0.000000 0.000000 22.715200 31.929235 -8.914658 -16.364834 0.000000 0.000000 -17.179300 
-12.887890 8.851572 25.615768 176.666739 -39.817150 -177.002000 2.879094 -2.581991 -19.693519 -6.341109 6.289390 21.330702 0.000000 0.000000 0.000000 19.916552 -6.295615 16.233026 4.388711 -10.511930 -84.494079 -26.001400 3.121570 8.279999 -46.368401 -9.140360 17.925699 0.000000 -22.024099 0.000000 6.273390 16.227301 -22.176001 30.411699 -4.080120 3.782013 47.937698 3.042570 7.946991 0.000000 26.246901 0.000000 1.951560 -9.964570 -17.639700 -4.769935 -14.483749 -3.915206 0.000000 0.000000 18.221300 -21.107830 5.421141 -7.116996 0.000000 0.000000 -17.703710 1.039013 16.862173 -4.282768 0.000000 0.000000 24.240400 33.911106 -8.847095 -19.149851 0.000000 0.000000 -16.158500 
-12.892973 8.850890 25.605719 176.657560 -40.033377 -176.952742 2.884616 -2.546506 -19.749713 -6.372928 6.290884 21.239837 0.000000 0.000000 0.000000 19.901101 -6.212440 16.143827 4.443414 -10.448295 -84.492082 -26.038401 3.059420 8.166992 -46.169998 -8.951750 19.189501 0.000000 -22.251600 0.000000 6.823940 16.244699 -21.171499 30.417200 -4.060650 3.794006 48.013802 3.070650 8.048004 0.000000 26.122400 0.000000 1.869870 -9.997610 -17.547600 -4.751958 -14.660601 -3.944064 0.000000 0.000000 18.306299 -21.038565 5.407017 -7.149276 0.000000 0.000000 -17.734520 1.075763 16.624541 -4.208565 0.000000 0.000000 24.211300 33.894311 -8.817732 -19.188092 0.000000 0.000000 -16.174660 
